# xmcd CD database file generated by OrangeCD 5.1
#
# Track frame offsets:
#	150
#	10818
#	31226
#	49058
#	81636
#	98573
#	115681
#	144452
#	181701
#	205461
#	225274
#	248175
#	266340
#	305552
#
# Disc length: 4322 seconds
#
# Revision: 0
# Processed by: cddbd v1.5PL3 Copyright (c) Steve Scherf et al.
# Submitted via: OrangeCD 5.1
#
DISCID=ae10e00e
DTITLE=Nina van Horn and the Midnight Wolf Band - Nina Live...and Alive in Paris
DYEAR=2001
DGENRE=Blues
TTITLE0=Intro
TTITLE1=Here Comesa Trouble Again
TTITLE2=Turn It Up
TTITLE3=Stormy Monday
TTITLE4=Hoochie Coochie Girl
TTITLE5=Soul Shake
TTITLE6=The Road
TTITLE7=Malika
TTITLE8=What's The News
TTITLE9=Hound Dog
TTITLE10=Steamy Windows
TTITLE11=Nobody's Business
TTITLE12=I've Got Dreams To Remember
TTITLE13=He's My Man
EXTD=
EXTT0=
EXTT1=
EXTT2=
EXTT3=
EXTT4=
EXTT5=
EXTT6=
EXTT7=
EXTT8=
EXTT9=
EXTT10=
EXTT11=
EXTT12=
EXTT13=
PLAYORDER=
